<?xml version="1.0" encoding="UTF-8" standalone="no"?>
<!-- Created with Inkscape (http://www.inkscape.org/) -->

<svg
   xmlns:dc="http://purl.org/dc/elements/1.1/"
   xmlns:cc="http://creativecommons.org/ns#"
   xmlns:rdf="http://www.w3.org/1999/02/22-rdf-syntax-ns#"
   xmlns:svg="http://www.w3.org/2000/svg"
   xmlns="http://www.w3.org/2000/svg"
   xmlns:sodipodi="http://sodipodi.sourceforge.net/DTD/sodipodi-0.dtd"
   xmlns:inkscape="http://www.inkscape.org/namespaces/inkscape"
   width="85.333328"
   height="85.333328"
   viewBox="0 0 22.577775 22.577777"
   version="1.1"
   id="svg211"
   inkscape:version="0.92.5 (2060ec1f9f, 2020-04-08)"
   sodipodi:docname="github.svg">
  <defs
     id="defs205" />
  <sodipodi:namedview
     id="base"
     pagecolor="#ffffff"
     bordercolor="#666666"
     borderopacity="1.0"
     inkscape:pageopacity="0"
     inkscape:pageshadow="2"
     inkscape:zoom="2.56"
     inkscape:cx="167.38281"
     inkscape:cy="24.609375"
     inkscape:document-units="mm"
     inkscape:current-layer="layer1"
     showgrid="false"
     units="px"
     inkscape:window-width="1366"
     inkscape:window-height="704"
     inkscape:window-x="0"
     inkscape:window-y="27"
     inkscape:window-maximized="1" />
  <metadata
     id="metadata208">
    <rdf:RDF>
      <cc:Work
         rdf:about="">
        <dc:format>image/svg+xml</dc:format>
        <dc:type
           rdf:resource="http://purl.org/dc/dcmitype/StillImage" />
        <dc:title></dc:title>
      </cc:Work>
    </rdf:RDF>
  </metadata>
  <g
     inkscape:label="Layer 1"
     inkscape:groupmode="layer"
     id="layer1"
     transform="translate(0,-274.42221)">
    <path
       d="m 11.288263,277.24435 c -4.6747781,0 -8.4659526,3.88655 -8.4659526,8.68119 0,3.83541 2.4257491,7.08885 5.7901962,8.23676 0.4236096,0.0799 0.5779801,-0.18812 0.5779801,-0.41834 0,-0.20624 -0.00722,-0.75194 -0.011492,-1.47618 -2.3550619,0.52438 -2.8519575,-1.16388 -2.8519575,-1.16388 -0.3851463,-1.00295 -0.940257,-1.26994 -0.940257,-1.26994 -0.7687337,-0.53825 0.058212,-0.52759 0.058212,-0.52759 0.8498182,0.0613 1.2968158,0.89476 1.2968158,0.89476 0.7552216,1.32643 1.981869,0.94327 2.4642123,0.72104 0.076924,-0.56062 0.2957461,-0.94326 0.5374379,-1.16016 -1.8799939,-0.21903 -3.8566649,-0.96404 -3.8566649,-4.2905 0,-0.94753 0.3300517,-1.72292 0.8716474,-2.32937 -0.087326,-0.21957 -0.3778693,-1.10261 0.083156,-2.29741 0,0 0.7105216,-0.23342 2.3280332,0.88997 0.6751773,-0.19292 1.3997311,-0.28885 2.1196071,-0.29258 0.719357,0.003 1.44339,0.0997 2.119606,0.29258 1.616473,-1.12339 2.325953,-0.88997 2.325953,-0.88997 0.462073,1.1948 0.171524,2.07784 0.08472,2.29741 0.542635,0.60645 0.870088,1.38184 0.870088,2.32937 0,3.33498 -1.979788,4.06882 -3.8655,4.28357 0.303543,0.26806 0.574343,0.79777 0.574343,1.60727 0,1.16069 -0.01046,2.09703 -0.01046,2.38161 0,0.23235 0.15281,0.50254 0.582138,0.4178 3.361852,-1.15056 5.785522,-4.40188 5.785522,-8.23622 0,-4.79464 -3.791176,-8.68119 -8.467511,-8.68119"
       style="fill:#000000;fill-opacity:1;fill-rule:evenodd;stroke:none;stroke-width:0.05263"
       id="path106"
       inkscape:connector-curvature="0" />
  </g>
</svg>
