<?xml version="1.0" encoding="UTF-8" standalone="no"?>
<!-- Created with Inkscape (http://www.inkscape.org/) -->

<svg
   xmlns:dc="http://purl.org/dc/elements/1.1/"
   xmlns:cc="http://creativecommons.org/ns#"
   xmlns:rdf="http://www.w3.org/1999/02/22-rdf-syntax-ns#"
   xmlns:svg="http://www.w3.org/2000/svg"
   xmlns="http://www.w3.org/2000/svg"
   xmlns:xlink="http://www.w3.org/1999/xlink"
   xmlns:sodipodi="http://sodipodi.sourceforge.net/DTD/sodipodi-0.dtd"
   xmlns:inkscape="http://www.inkscape.org/namespaces/inkscape"
   width="85.333328"
   height="85.333328"
   viewBox="0 0 22.577775 22.577775"
   version="1.1"
   id="svg1701"
   inkscape:version="0.92.5 (2060ec1f9f, 2020-04-08)"
   sodipodi:docname="instagram.svg">
  <defs
     id="defs1695">
    <radialGradient
       id="d"
       cx="147.694"
       cy="473.45499"
       r="65"
       xlink:href="#b"
       gradientUnits="userSpaceOnUse"
       gradientTransform="matrix(-0.02265254,0.11316547,0.46646478,0.09342482,-194.91235,217.51784)"
       fx="147.694"
       fy="473.45499" />
    <linearGradient
       id="b">
      <stop
         offset="0"
         stop-color="#3771c8"
         id="stop998" />
      <stop
         stop-color="#3771c8"
         offset=".128"
         id="stop1000" />
      <stop
         offset="1"
         stop-color="#60f"
         stop-opacity="0"
         id="stop1002" />
    </linearGradient>
    <radialGradient
       id="c"
       cx="158.429"
       cy="578.08801"
       r="65"
       xlink:href="#a"
       gradientUnits="userSpaceOnUse"
       gradientTransform="matrix(0.25818641,0,0,-0.24013468,-39.386015,428.49872)"
       fx="158.429"
       fy="578.08801" />
    <linearGradient
       id="a">
      <stop
         offset="0"
         stop-color="#fd5"
         id="stop1005" />
      <stop
         offset=".1"
         stop-color="#fd5"
         id="stop1007" />
      <stop
         offset=".5"
         stop-color="#ff543e"
         id="stop1009" />
      <stop
         offset="1"
         stop-color="#c837ab"
         id="stop1011" />
    </linearGradient>
  </defs>
  <sodipodi:namedview
     id="base"
     pagecolor="#ffffff"
     bordercolor="#666666"
     borderopacity="1.0"
     inkscape:pageopacity="0.0"
     inkscape:pageshadow="2"
     inkscape:zoom="2.1892883"
     inkscape:cx="29.837036"
     inkscape:cy="24.131877"
     inkscape:document-units="mm"
     inkscape:current-layer="layer1"
     showgrid="false"
     units="px"
     showguides="false"
     inkscape:window-width="1366"
     inkscape:window-height="704"
     inkscape:window-x="0"
     inkscape:window-y="27"
     inkscape:window-maximized="1" />
  <metadata
     id="metadata1698">
    <rdf:RDF>
      <cc:Work
         rdf:about="">
        <dc:format>image/svg+xml</dc:format>
        <dc:type
           rdf:resource="http://purl.org/dc/dcmitype/StillImage" />
        <dc:title />
      </cc:Work>
    </rdf:RDF>
  </metadata>
  <g
     inkscape:label="Layer 1"
     inkscape:groupmode="layer"
     id="layer1"
     transform="translate(0,-274.42223)">
    <path
       d="m 19.755685,285.70825 c 0,3.53476 -0.004,4.56854 -0.0204,4.76949 -0.0603,0.72539 -0.17456,1.17677 -0.41946,1.66853 -0.18824,0.37897 -0.40643,0.67785 -0.7123,0.97283 -0.5578,0.53721 -1.24405,0.86279 -2.05979,0.98065 -0.396,0.0573 -0.47677,0.074 -2.49955,0.0774 -0.67427,0.001 -1.56165,0 -2.75189,0 -3.53284,0 -4.56586,-0.004 -4.76647,-0.0208 -0.70604,-0.0586 -1.15025,-0.16931 -1.63615,-0.40372 -0.93011,-0.448 -1.62834,-1.30362 -1.88887,-2.31162 -0.0899,-0.34902 -0.13939,-0.73451 -0.16283,-1.22939 -0.009,-0.20967 -0.0157,-2.34678 -0.0157,-4.48519 0,-2.13841 0.002,-4.27682 0.013,-4.48128 0.0269,-0.57302 0.0717,-0.90576 0.16674,-1.27367 0.26184,-1.0145 0.94965,-1.8545 1.89278,-2.31161 0.47418,-0.22986 0.93532,-0.34642 1.6045,-0.39916 0.1459,-0.0115 2.47207,-0.0163 4.79512,-0.0163 2.32345,0 4.64532,0.005 4.79122,0.0167 0.67999,0.0534 1.13723,0.16995 1.62052,0.40723 0.39562,0.1947 0.69106,0.41088 0.99316,0.72474 0.53513,0.56013 0.8608,1.24515 0.97856,2.06144 0.0572,0.39552 0.0741,0.47431 0.0776,2.49811 z"
       id="path1018"
       inkscape:connector-curvature="0"
       style="fill:url(#c);stroke-width:0.13024943" />
    <path
       d="m 11.286228,277.2443 c 3.53476,0 4.56854,0.004 4.76949,0.0204 0.72539,0.0603 1.17677,0.17456 1.66853,0.41946 0.37897,0.18824 0.67785,0.40643 0.97283,0.7123 0.53721,0.5578 0.86279,1.24405 0.98065,2.05979 0.0573,0.396 0.074,0.47677 0.0774,2.49955 0.001,0.67427 0,1.56165 0,2.75189 0,3.53284 -0.004,4.56586 -0.0208,4.76647 -0.0586,0.70604 -0.16931,1.15025 -0.40372,1.63615 -0.448,0.93011 -1.30362,1.62834 -2.31162,1.88887 -0.34902,0.0899 -0.73451,0.13939 -1.22939,0.16283 -0.20967,0.009 -2.34678,0.0157 -4.48519,0.0157 -2.1384103,0 -4.2768203,-0.002 -4.4812803,-0.013 -0.57302,-0.0269 -0.90576,-0.0717 -1.27367,-0.16674 -1.0145,-0.26184 -1.8545,-0.94965 -2.31161,-1.89278 -0.22986,-0.47418 -0.34642,-0.93532 -0.39916,-1.6045 -0.0115,-0.1459 -0.0163,-2.47207 -0.0163,-4.79512 0,-2.32345 0.005,-4.64532 0.0167,-4.79122 0.0534,-0.67999 0.16995,-1.13723 0.40723,-1.62052 0.1947,-0.39562 0.41088,-0.69106 0.72474,-0.99316 0.56013,-0.53513 1.24515,-0.8608 2.06144,-0.97856 0.39552,-0.0572 0.47431,-0.0741 2.49811,-0.0776 z"
       id="path1020"
       inkscape:connector-curvature="0"
       style="fill:#000000;stroke-width:0.13024943" />
    <path
       d="m 17.540029,285.70993 c 0,1.69771 -0.007,1.91077 -0.0377,2.57755 -0.0305,0.66549 -0.13586,1.11974 -0.29049,1.51721 -0.15971,0.41114 -0.37335,0.7599 -0.72103,1.10736 -0.34755,0.34772 -0.69641,0.5613 -1.10752,0.72148 -0.39772,0.15498 -0.85222,0.26047 -1.51762,0.29042 -0.66697,0.0298 -0.88021,0.0376 -2.57837,0.0376 -1.69815,0 -1.91063,-0.008 -2.57759,-0.0378 -0.66567,-0.0306 -1.12003,-0.13596 -1.51761,-0.29042 -0.41125,-0.15979 -0.76011,-0.37337 -1.10766,-0.72096 -0.34781,-0.34733 -0.56197,-0.69609 -0.72168,-1.10697 -0.15463,-0.39773 -0.26001,-0.85211 -0.29049,-1.51747 -0.0303,-0.66678 -0.0378,-0.87971 -0.0378,-2.57729 0,-1.69783 0.007,-1.91024 0.0378,-2.57702 0.0305,-0.66549 0.13586,-1.12026 0.29049,-1.51799 0.15971,-0.41101 0.37387,-0.75925 0.72168,-1.10658 0.34755,-0.34772 0.69641,-0.5613 1.10753,-0.72148 0.39771,-0.15368 0.85221,-0.25917 1.51761,-0.29042 0.66697,-0.03 0.87957,-0.0378 2.57772,-0.0378 1.69816,0 1.91128,0.008 2.57824,0.0378 0.66567,0.0312 1.12003,0.13674 1.51761,0.29042 0.41125,0.16018 0.76011,0.37376 1.10766,0.72148 0.34781,0.34772 0.56145,0.69544 0.72103,1.10697 0.15463,0.39851 0.26001,0.85302 0.29049,1.51851 0.0303,0.66678 0.0377,0.87906 0.0377,2.57729 z m -1.12681,0.56078 c 2.6e-4,-0.16644 0,-0.35215 0,-0.56078 0,-1.66905 -0.006,-1.86687 -0.036,-2.52598 -0.0279,-0.60948 -0.12975,-0.94027 -0.21533,-1.16062 -0.11334,-0.29172 -0.24881,-0.4997 -0.46766,-0.71836 -0.21885,-0.21879 -0.42727,-0.35423 -0.71908,-0.4678 -0.22014,-0.0856 -0.55102,-0.18753 -1.16068,-0.21527 -0.65915,-0.03 -0.85714,-0.0365 -2.52587,-0.0365 -1.66872,0 -1.86672,0.007 -2.52587,0.0365 -0.60965,0.0279 -0.94053,0.12971 -1.16068,0.21527 -0.2918,0.11331 -0.49957,0.24901 -0.71829,0.4678 -0.21885,0.21879 -0.35432,0.42651 -0.46766,0.71836 -0.086,0.22009 -0.18759,0.55114 -0.21546,1.16062 -0.03,0.65898 -0.0365,0.85693 -0.0365,2.52598 0,1.66919 0.006,1.86701 0.0365,2.52598 0.0281,0.60949 0.13,0.94028 0.21559,1.16076 0.11333,0.29172 0.24881,0.50009 0.46766,0.71888 0.21885,0.21879 0.42675,0.35423 0.71868,0.46779 0.22015,0.0856 0.55103,0.18754 1.16068,0.21528 0.65915,0.0299 0.85715,0.036 2.52692,0.036 1.66976,0 1.86672,-0.006 2.52587,-0.036 0.60965,-0.0279 0.94053,-0.12972 1.16094,-0.21528 0.2918,-0.1133 0.50023,-0.249 0.71908,-0.46779 0.21884,-0.21879 0.35432,-0.42716 0.46791,-0.71888 0.086,-0.22035 0.18758,-0.55127 0.21559,-1.16076 0.026,-0.57667 0.0339,-0.80014 0.0352,-1.9652 z m -1.03823,-3.89758 c 0,0.41414 -0.33569,0.75014 -0.75007,0.75014 -0.41425,0 -0.75034,-0.336 -0.75034,-0.75014 0,-0.41414 0.33609,-0.75014 0.75034,-0.75014 0.41425,0 0.75034,0.336 0.75034,0.75014 z m -0.87669,3.3368 c 0,1.77285 -1.43775,3.21022 -3.21108,3.21022 -1.77332,0 -3.21043,-1.43737 -3.21043,-3.21022 0,-1.77284 1.43711,-3.20969 3.21043,-3.20969 1.77333,0 3.21108,1.43698 3.21108,3.20982 z m -1.12681,0 c 0,-1.15073 -0.9331,-2.08371 -2.08427,-2.08371 -1.15104,0 -2.08427,0.93298 -2.08427,2.08371 0,1.15086 0.93323,2.08371 2.08427,2.08371 1.15117,0 2.08427,-0.93285 2.08427,-2.08371 z"
       id="path1022"
       inkscape:connector-curvature="0"
       style="fill:#ffffff;stroke-width:0.13024943" />
  </g>
</svg>
